<svg width="18" height="18" viewBox="0 0 18 18" fill="none" xmlns="http://www.w3.org/2000/svg">
<rect width="18" height="18" rx="9" fill="#692F6C"/>
<path fill-rule="evenodd" clip-rule="evenodd" d="M8.70151 4.20932C8.83044 4.07529 9.00528 4 9.18758 4C9.36989 4 9.54472 4.07529 9.67365 4.20932L13.7987 8.49887C13.9276 8.63293 14 8.81474 14 9.00432C14 9.19389 13.9276 9.3757 13.7987 9.50977L9.67365 13.7993C9.54399 13.9295 9.37032 14.0016 9.19006 14C9.00979 13.9983 8.83736 13.9232 8.70989 13.7906C8.58242 13.6581 8.51011 13.4787 8.50855 13.2913C8.50698 13.1038 8.57628 12.9232 8.70151 12.7884L11.653 9.71924L3.68751 9.71924C3.50517 9.71924 3.3303 9.64392 3.20137 9.50984C3.07243 9.37577 3 9.19393 3 9.00432C3 8.81471 3.07243 8.63286 3.20137 8.49879C3.3303 8.36471 3.50517 8.28939 3.68751 8.28939L11.653 8.28939L8.70151 5.22022C8.57263 5.08615 8.50022 4.90434 8.50022 4.71477C8.50022 4.5252 8.57263 4.34339 8.70151 4.20932Z" fill="white"/>
</svg>
