<svg width="11" height="10" viewBox="0 0 11 10" fill="none" xmlns="http://www.w3.org/2000/svg">
<path fill-rule="evenodd" clip-rule="evenodd" d="M5.70151 0.20932C5.83044 0.0752922 6.00528 -2.18326e-07 6.18758 -2.10357e-07C6.36989 -2.02389e-07 6.54472 0.0752923 6.67365 0.20932L10.7987 4.49887C10.9276 4.63293 11 4.81474 11 5.00432C11 5.19389 10.9276 5.3757 10.7987 5.50977L6.67365 9.79931C6.54399 9.92954 6.37032 10.0016 6.19006 9.99997C6.00979 9.99835 5.83736 9.92316 5.70989 9.7906C5.58242 9.65805 5.51011 9.47874 5.50855 9.29129C5.50698 9.10384 5.57628 8.92325 5.70151 8.78841L8.65299 5.71924L0.687509 5.71924C0.505171 5.71924 0.330299 5.64392 0.201366 5.50984C0.0724332 5.37577 -2.27034e-07 5.19393 -2.18746e-07 5.00432C-2.10458e-07 4.81471 0.0724333 4.63286 0.201366 4.49879C0.330299 4.36471 0.505171 4.28939 0.687509 4.28939L8.65299 4.28939L5.70151 1.22022C5.57263 1.08615 5.50022 0.904343 5.50022 0.714771C5.50022 0.525199 5.57263 0.343388 5.70151 0.20932Z" fill="#692F6C"/>
</svg>
