<svg width="15" height="9" viewBox="0 0 15 9" fill="none" xmlns="http://www.w3.org/2000/svg">
<path fill-rule="evenodd" clip-rule="evenodd" d="M5.19061 1.9523C5.2643 1.88364 5.3234 1.80084 5.36439 1.70884C5.40538 1.61684 5.42743 1.51753 5.4292 1.41682C5.43098 1.31612 5.41245 1.21609 5.37473 1.1227C5.33701 1.02932 5.28087 0.944483 5.20965 0.873264C5.13843 0.802045 5.0536 0.745901 4.96021 0.70818C4.86682 0.670458 4.76679 0.651934 4.66609 0.65371C4.56538 0.655487 4.46607 0.677529 4.37407 0.718521C4.28207 0.759513 4.19927 0.818616 4.13061 0.892303L0.34961 4.6723L4.12961 8.4523C4.271 8.58899 4.46041 8.66468 4.65706 8.66306C4.85371 8.66144 5.04186 8.58266 5.18098 8.44367C5.3201 8.30467 5.39907 8.1166 5.40087 7.91995C5.40267 7.72331 5.32716 7.53382 5.19061 7.3923L3.22061 5.4223L13.5996 5.4223C13.7985 5.4223 13.9893 5.34329 14.1299 5.20263C14.2706 5.06198 14.3496 4.87122 14.3496 4.6723C14.3496 4.47339 14.2706 4.28263 14.1299 4.14197C13.9893 4.00132 13.7985 3.9223 13.5996 3.9223L3.22061 3.9223L5.19061 1.9523Z" fill="#524431" fill-opacity="0.56"/>
</svg>
