<svg width="20" height="20" viewBox="0 0 20 20" fill="none" xmlns="http://www.w3.org/2000/svg">
<circle cx="9.59753" cy="9.5155" r="9.5155" fill="#F5E0C7"/>
<path d="M9.22195 12.0099C9.22195 11.6901 9.24099 11.4121 9.27907 11.176C9.32476 10.9323 9.39711 10.7076 9.49612 10.502C9.59512 10.2964 9.72839 10.0984 9.89594 9.908C10.0711 9.71761 10.2881 9.51199 10.5471 9.29114C10.7908 9.08552 10.9621 8.89132 11.0611 8.70854C11.1601 8.52577 11.2096 8.32776 11.2096 8.11452C11.2096 7.74136 11.0878 7.43673 10.8441 7.20065C10.6004 6.95695 10.2881 6.8351 9.90736 6.8351C9.13818 6.8351 8.69648 7.31488 8.58224 8.27445H7.30282C7.32566 7.85559 7.40563 7.48243 7.54271 7.15495C7.67979 6.81987 7.85876 6.53809 8.07961 6.30962C8.30808 6.07354 8.57843 5.89457 8.89067 5.77272C9.20291 5.64325 9.54943 5.57852 9.93021 5.57852C10.3034 5.57852 10.6461 5.64325 10.9583 5.77272C11.2782 5.90218 11.5523 6.08115 11.7808 6.30962C12.0093 6.53809 12.1882 6.81225 12.3177 7.13211C12.4472 7.44435 12.5119 7.78324 12.5119 8.14879C12.5119 8.33918 12.4929 8.51815 12.4548 8.68569C12.4167 8.84562 12.352 9.00555 12.2606 9.16548C12.1768 9.31779 12.0626 9.47391 11.9179 9.63384C11.7732 9.79377 11.598 9.96893 11.3924 10.1593C11.2096 10.3192 11.0611 10.4639 10.9469 10.5934C10.8327 10.7229 10.7413 10.8561 10.6727 10.9932C10.6118 11.1303 10.5661 11.2788 10.5356 11.4387C10.5128 11.5987 10.5014 11.7891 10.5014 12.0099H9.22195ZM9.22195 12.7182H10.5128V14.1689H9.22195V12.7182Z" fill="#423A2F"/>
</svg>
