<svg width="13" height="10" viewBox="0 0 13 10" fill="none" xmlns="http://www.w3.org/2000/svg">
<path d="M2.10988 0.844899L10.5299 0.8449C10.8623 0.844418 11.188 0.938085 11.4694 1.11506C11.7508 1.29203 11.9763 1.54508 12.1199 1.8449C12.2879 2.20064 12.3526 2.59643 12.3067 2.98717C12.2607 3.3779 12.1059 3.74787 11.8599 4.0549L7.64988 9.1549C7.48466 9.34553 7.2804 9.49842 7.05092 9.6032C6.82145 9.70798 6.57214 9.76221 6.31988 9.76221C6.06762 9.76221 5.8183 9.70798 5.58883 9.6032C5.35936 9.49841 5.15509 9.34553 4.98988 9.1549L0.779876 4.0549C0.53387 3.74787 0.379062 3.3779 0.333093 2.98717C0.287124 2.59643 0.351845 2.20064 0.519878 1.8449C0.663419 1.54507 0.888937 1.29203 1.17032 1.11506C1.45171 0.938085 1.77747 0.844418 2.10988 0.844899Z" fill="#2AABEE"/>
</svg>
