<svg width="25" height="24" viewBox="0 0 25 24" fill="none" xmlns="http://www.w3.org/2000/svg">
<rect x="0.449219" width="24" height="24" rx="12" fill="white"/>
<path fill-rule="evenodd" clip-rule="evenodd" d="M17.6921 6.103C17.8475 6.00705 18.0331 5.97662 18.2099 6.0181C18.3867 6.05957 18.541 6.16972 18.6404 6.32543L19.3348 7.41239C19.4253 7.55438 19.464 7.72463 19.4441 7.89309C19.4242 8.06154 19.347 8.21736 19.2261 8.33306L19.2239 8.33594L19.1741 8.38345L19.0163 8.53821C18.1432 9.40753 17.2964 10.3044 16.4773 11.2275C14.9364 12.9667 13.1065 15.2428 11.8748 17.4512C11.5312 18.0674 10.6916 18.1999 10.1936 17.6679L5.64516 12.8176C5.57998 12.7481 5.52908 12.6658 5.4955 12.5757C5.46191 12.4856 5.44632 12.3895 5.44966 12.293C5.453 12.1966 5.47519 12.1018 5.51492 12.0144C5.55465 11.9269 5.6111 11.8486 5.68093 11.784L7.05564 10.5113C7.17645 10.3995 7.33136 10.3343 7.49385 10.3268C7.65634 10.3193 7.81632 10.37 7.9464 10.4703L10.2673 12.2562C13.8927 8.58716 15.9485 7.17916 17.6921 6.103Z" fill="#692F6C"/>
</svg>
