<svg width="37" height="37" viewBox="0 0 37 37" fill="none" xmlns="http://www.w3.org/2000/svg">
<rect width="37" height="37" rx="18.5" fill="#F5E0C7"/>
<path d="M17.1902 16.9612H19.3807C19.3807 16.7896 19.3807 16.6236 19.3807 16.4579C19.3808 16.2112 19.382 15.9647 19.3814 15.718C19.3811 15.5655 19.4534 15.4753 19.6077 15.4746C20.2272 15.4714 20.8469 15.4707 21.4665 15.474C21.6208 15.4749 21.6903 15.5684 21.6897 15.7205C21.6885 16.0813 21.6952 16.4424 21.6863 16.8031C21.6831 16.9318 21.7259 17.0115 21.8274 17.0876C22.8549 17.8569 23.8159 18.7016 24.6984 19.6348C25.6399 20.6306 26.4639 21.7148 27.1605 22.895C27.4582 23.3995 27.5854 23.9501 27.5861 24.5327C27.5862 24.6814 27.5861 24.8302 27.5861 24.9964C28.27 24.8181 28.8048 24.4528 29.236 23.93C29.7271 23.3344 30.0213 22.6413 30.2229 21.9041C30.5087 20.8593 30.655 19.7965 30.6058 18.7126C30.5792 18.1262 30.4768 17.5541 30.1761 17.0354C29.984 16.7039 29.7235 16.4485 29.3475 16.2893C29.3234 16.3559 29.2987 16.415 29.2802 16.4759C29.0408 17.2682 28.3556 17.6468 27.5625 17.4037C26.5579 17.096 25.5559 16.7791 24.5569 16.4533C23.7907 16.2034 23.4673 15.5294 23.6974 14.7274C23.7731 14.4633 23.8597 14.1936 23.8758 13.9225C23.9126 13.3043 23.577 12.8536 23.1341 12.4698C22.6135 12.0187 22.0028 11.72 21.37 11.4695C20.0609 10.9517 18.7243 10.5183 17.3311 10.2911C16.7117 10.19 16.0852 10.1628 15.4732 10.3579C14.8862 10.545 14.5366 10.9559 14.3612 11.5379C14.2959 11.7546 14.224 11.9796 14.1028 12.167C13.767 12.6864 13.1944 12.8785 12.6059 12.6954C11.6197 12.3885 10.634 12.0807 9.65013 11.7665C8.96776 11.5488 8.58891 11.057 8.63312 10.4146C8.64926 10.1794 8.72169 9.94121 8.8072 9.71928C8.9839 9.26146 9.14824 8.792 9.38791 8.36676C9.75164 7.72148 10.3594 7.38772 11.0746 7.24417C11.7055 7.1175 12.3426 7.12725 12.9789 7.18178C14.821 7.33987 16.599 7.81034 18.3653 8.32226C20.898 9.05625 23.4116 9.8506 25.841 10.8858C26.8038 11.296 27.7424 11.7549 28.5698 12.4121C29.3899 13.0638 29.7686 13.8924 29.614 14.9439C29.5904 15.1045 29.5619 15.265 29.5543 15.4266C29.5519 15.4798 29.5943 15.5661 29.6391 15.5861C30.5151 15.9781 30.9623 16.6988 31.1919 17.5893C31.4525 18.5999 31.3882 19.6168 31.247 20.6345C31.1209 21.5427 30.9144 22.4302 30.5302 23.2676C29.9883 24.4486 29.1521 25.312 27.8784 25.6961C27.8554 25.7031 27.833 25.7155 27.8096 25.7172C27.6389 25.7303 27.5779 25.8129 27.5603 25.9915C27.3966 27.651 26.0825 28.8444 24.3805 28.8488C20.3199 28.8593 16.2593 28.8582 12.1987 28.8491C10.6145 28.8454 9.39853 27.8655 9.04557 26.3503C9.02113 26.2453 8.99423 26.1371 8.9951 26.0306C9.0015 25.3279 8.99394 24.6241 9.03466 23.9232C9.05822 23.5187 9.24612 23.1511 9.45437 22.8022C10.2794 21.4206 11.2688 20.1649 12.4353 19.0608C13.1675 18.3677 13.9612 17.739 14.7325 17.0877C14.8329 17.0029 14.8886 16.9267 14.8844 16.7891C14.8739 16.4467 14.88 16.1036 14.8813 15.7608C14.8822 15.5412 14.943 15.4733 15.1546 15.4723C15.7442 15.4695 16.3336 15.4698 16.9232 15.4723C17.1228 15.4731 17.1886 15.5431 17.1896 15.7493C17.1916 16.1458 17.1902 16.5422 17.1902 16.9611V16.9612ZM19.5843 24.8417C19.1227 25.1368 18.626 25.2254 18.108 25.1256C17.5849 25.0249 17.1692 24.7371 16.8621 24.3003C16.3427 23.5618 16.4223 22.5295 17.0586 21.84C17.6609 21.1872 18.6829 20.9993 19.5318 21.5099C20.1968 21.9099 20.7736 22.8715 20.2864 24.07C20.6858 24.2121 21.0845 24.3538 21.4813 24.495C22.0559 23.3468 21.8273 21.534 20.3759 20.5022C19.0037 19.5268 17.059 19.7858 15.9696 21.0979C14.8892 22.399 14.9905 24.3579 16.1914 25.5257C17.448 26.7479 19.2457 26.6615 20.2479 25.9276C20.03 25.5709 19.8116 25.2136 19.5844 24.8417H19.5843Z" fill="#692F6C"/>
</svg>
