<svg width="47" height="46" viewBox="0 0 47 46" fill="none" xmlns="http://www.w3.org/2000/svg">
<rect x="5" y="4.5" width="37" height="37" rx="18.5" fill="#F5E0C7"/>
<path d="M6.34257 33.9918C5.14955 33.7731 4.51641 32.5326 4.918 31.3939C4.49983 31.3691 4.08701 31.3529 3.67632 31.3179C2.27315 31.1978 1.47317 29.7822 2.11112 28.5471C2.19614 28.3828 2.3186 28.2379 2.44373 28.0537C2.29186 27.9977 2.14588 27.9454 2.00203 27.8899C1.74482 27.7908 1.48814 27.6912 1.23253 27.5888C0.175336 27.166 -0.066904 25.7687 0.52506 24.8939C0.574257 24.8212 0.625058 24.749 0.673185 24.6795C-0.285081 23.5715 -0.226793 22.707 0.889757 21.551C0.417041 20.951 0.298328 20.2766 0.607946 19.5677C0.914356 18.8664 1.4598 18.4591 2.27903 18.4123C2.1555 18.1268 2.0523 17.8822 1.94428 17.6398C1.6384 16.9531 1.55766 16.255 1.90203 15.5628C2.24855 14.8668 2.78864 14.4505 3.60146 14.4871C3.62819 14.4882 3.65547 14.4887 3.68113 14.4839C3.69718 14.4812 3.71108 14.4672 3.75332 14.4424C3.44852 13.7222 3.44264 13.0193 4.00359 12.402C4.54368 11.8073 5.2073 11.6053 6.02974 11.8315C5.88055 11.0596 6.07894 10.4197 6.69069 9.957C7.28319 9.50938 7.93451 9.40273 8.65053 9.73023C8.83395 9.2309 9.15854 8.87269 9.64516 8.67123C10.0767 8.49294 10.5072 8.47947 10.9494 8.63245C11.0232 8.65777 11.1687 8.6346 11.2061 8.58074C11.8414 7.67472 13.152 7.43879 14.0199 8.33996C14.0376 8.35827 14.0638 8.36851 14.106 8.39544C14.5985 7.96667 15.1514 7.68442 15.8306 7.86864C16.4669 8.04101 16.914 8.46439 17.2273 8.99227C17.6166 8.78543 17.9728 8.54626 18.3637 8.40137C18.7776 8.24731 19.2064 8.33619 19.6374 8.58451C20.1369 7.07412 20.6246 5.59928 21.1155 4.11582C20.7171 3.9413 20.3417 3.78455 19.9743 3.61164C19.8561 3.55616 19.7209 3.48075 19.6588 3.37517C19.5791 3.23943 19.492 3.03905 19.5358 2.91031C19.7021 2.41906 19.9053 1.93912 20.1219 1.46725C20.4609 0.730373 21.1315 0.560696 21.8497 0.506292C22.5518 0.452965 23.1737 0.748687 23.7956 1.01155C24.1127 1.14568 24.4213 1.31428 24.7068 1.50765C25.5052 2.04846 25.8742 3.63049 25.4576 4.46218C25.3619 4.65286 25.2993 4.86078 25.2223 5.06063C25.1197 5.32726 24.8571 5.44253 24.5325 5.34234C24.1838 5.23515 23.8405 5.11072 23.4946 4.99545C23.4534 4.98198 23.4101 4.97552 23.3085 4.95182C22.8464 6.43851 22.386 7.91981 21.9171 9.42858C22.101 9.43936 22.2347 9.43559 22.3641 9.45713C22.8614 9.5417 23.2571 9.76147 23.5133 10.2344C23.8576 10.8711 24.094 11.5423 24.2673 12.2409C24.2903 12.333 24.3197 12.4235 24.3657 12.5808C26.4346 10.0992 28.1998 7.45603 30.2024 4.96151C29.9762 4.75736 29.7511 4.57099 29.5447 4.36576C28.9549 3.77916 28.7602 3.55885 29.4586 2.87476C29.7516 2.58766 30.0211 2.27524 30.3206 1.99514C30.5575 1.77375 30.8596 1.6881 31.1826 1.6881C31.8339 1.68918 32.4377 1.84647 32.9467 2.27254C33.3301 2.59304 33.7168 2.91354 34.0692 3.26744C34.6242 3.82441 34.8483 4.49611 34.7547 5.30087C34.6761 5.97688 34.4242 6.52846 33.9435 7.00463C33.3638 7.57884 33.3317 7.59446 32.6874 7.05904C32.4617 6.87158 32.2307 6.69114 31.9762 6.48645C29.9735 9.11131 27.9896 11.7114 25.9736 14.3535C26.5843 14.5356 27.0191 14.8733 27.2244 15.4642C27.4196 16.0266 27.3848 16.5749 27.149 17.1077C27.164 17.1249 27.1688 17.1346 27.1758 17.1378C28.0955 17.5472 28.4474 18.1904 28.2944 19.2063C28.2543 19.4707 28.1971 19.7352 28.1196 19.9911C28.0447 20.2383 27.934 20.4743 27.8308 20.7355C27.9463 20.805 28.0666 20.8766 28.1859 20.9488C28.8811 21.369 29.0393 22.045 28.8789 22.8503C28.742 23.5371 28.3602 24.0999 27.8944 24.6074C27.819 24.6892 27.7453 24.7722 27.6597 24.867C28.8121 25.2198 29.3527 25.968 29.2265 26.9936C29.0971 28.044 28.4335 28.5115 26.925 28.5896C27.2581 29.3615 27.264 30.0995 26.6223 30.7087C26.0309 31.27 25.286 31.3777 24.4812 31.3169C24.5806 31.7984 24.4999 32.2191 24.232 32.6371C24.6849 32.7281 25.0999 32.8111 25.5148 32.8951C26.6677 33.1278 27.8212 33.3627 29.0046 33.3535C30.0655 33.3454 31.0559 33.1138 31.9799 32.545C33.3799 31.6831 34.8349 30.9182 36.4017 30.4028C38.2867 29.7828 40.2043 29.521 42.162 30.0182C43.5748 30.3769 44.824 31.0852 45.9683 31.9713C46.6304 32.4841 47.0416 33.1677 46.9967 34.0565C46.9582 34.817 46.6266 35.374 45.9004 35.6557C45.2881 35.8933 44.5673 35.7128 44.0727 35.1752C43.4951 34.5477 42.7984 34.1136 42 33.8426C41.1086 33.5399 40.1909 33.5113 39.2567 33.541C37.6012 33.5932 36.2135 34.3225 34.8451 35.1585C34.0627 35.6363 33.2585 36.0936 32.42 36.4578C31.3222 36.9345 30.1254 36.9415 28.9516 36.9663C25.9501 37.0293 23.0598 36.4098 20.2305 35.4505C19.8941 35.3363 19.5529 35.2366 19.1915 35.1235C18.8198 35.7591 18.4305 36.3689 17.6658 36.5445C16.915 36.7174 16.2546 36.5504 15.7124 35.9466C15.6685 35.9994 15.6268 36.0414 15.5942 36.0899C15.1899 36.6926 14.6071 36.9027 13.9226 36.7998C13.667 36.7616 13.5846 36.816 13.5124 37.0492C12.9574 38.8473 12.4419 40.6598 11.8055 42.4282C11.4847 43.3203 10.9398 44.1304 10.4911 44.975C10.4248 45.1 10.3425 45.2239 10.2435 45.3235C9.94408 45.6252 9.56869 45.5282 9.43875 45.1237C9.4195 45.0644 9.39704 45.0025 9.3965 44.9416C9.38634 43.7646 9.38581 42.5839 9.65799 41.4333C9.94248 40.2305 10.2858 39.0412 10.6024 37.8459C10.7173 37.4128 10.8312 36.9792 10.9435 36.545C10.9654 36.461 10.9783 36.3754 10.9975 36.2789C9.93606 36.1136 9.40132 35.457 9.22538 34.399C8.88475 34.7368 8.56818 35.0357 8.26872 35.3508C7.43078 36.2326 6.657 37.1871 5.749 37.9876C4.96506 38.6781 4.0362 39.2028 3.16083 39.7851C2.97955 39.9057 2.76137 39.8664 2.58651 39.7193C2.41753 39.5766 2.40576 39.3778 2.48918 39.2017C2.72661 38.7013 2.99505 38.216 3.23676 37.7177C3.77151 36.6151 4.61106 35.7629 5.46612 34.9199C5.75702 34.6334 6.02867 34.3263 6.34257 33.9924V33.9918ZM24.7763 30.2826C25.0849 30.2228 25.3523 30.1938 25.6041 30.1162C25.871 30.0338 26.0351 29.8285 26.0597 29.5414C26.0838 29.2608 25.9704 29.034 25.7405 28.8714C25.4731 28.6817 25.1715 28.65 24.8512 28.6435C24.417 28.6354 23.9699 28.6397 23.5518 28.5401C21.4032 28.0284 19.3503 27.2478 17.3888 26.2255C14.0948 24.5088 11.3537 22.1473 9.1917 19.1055C7.90884 17.301 6.89335 15.3549 6.0784 13.2967C6.01851 13.1453 5.88375 12.9896 5.74258 12.9126C5.4335 12.7445 5.06292 12.8329 4.83565 13.0753C4.59715 13.3301 4.56881 13.6059 4.74367 13.9651C4.7672 14.0131 4.78645 14.0632 4.80624 14.1133C5.94471 16.9892 7.39709 19.6814 9.38046 22.0649C11.0344 24.0525 12.9595 25.7073 15.2365 26.9349C17.7081 28.2675 20.3267 29.2053 23.04 29.8862C23.6256 30.0332 24.2175 30.156 24.7758 30.2826H24.7763ZM21.3497 32.6204C21.6074 32.5827 22.1096 32.5493 22.5876 32.4227C22.8625 32.35 23.1277 32.1593 23.3432 31.9616C23.5421 31.779 23.4881 31.5571 23.2368 31.444C23.0309 31.3513 22.7962 31.2969 22.5705 31.2797C21.0593 31.1649 19.6299 30.7426 18.2567 30.121C15.952 29.0777 13.8707 27.6556 11.8435 26.1608C9.92376 24.7447 8.44038 22.8896 7.09495 20.9429C5.98215 19.3328 5.00677 17.6269 3.97364 15.9609C3.84156 15.7481 3.71108 15.5305 3.42392 15.5698C3.13623 15.6097 2.94746 15.7933 2.85121 16.0724C2.73463 16.4106 2.748 16.7478 2.89185 17.0689C3.14746 17.6409 3.40093 18.2162 3.69022 18.7716C4.66453 20.6418 5.92921 22.3057 7.28426 23.9093C10.443 27.6475 14.3295 30.3327 18.8588 32.1001C19.584 32.3828 20.3198 32.6209 21.3497 32.6209V32.6204ZM27.1164 27.4638C27.1699 27.4676 27.2228 27.4719 27.2763 27.4752C27.8062 27.5086 28.1174 27.2726 28.1586 26.8062C28.203 26.3074 27.9592 26.0461 27.4036 25.9809C26.6875 25.8969 25.9678 25.8306 25.2571 25.7116C23.193 25.3658 21.2053 24.7646 19.3064 23.8689C17.4049 22.9715 15.6616 21.8349 14.1279 20.3886C11.7537 18.15 10.0938 15.4389 8.97726 12.3766C8.82432 11.9565 8.70935 11.5202 8.53128 11.1119C8.33824 10.6686 7.91044 10.5151 7.51473 10.6944C7.15966 10.8555 6.97838 11.3247 7.11527 11.727C7.33666 12.3793 7.55163 13.0343 7.77943 13.6845C8.67727 16.2458 10.1066 18.4769 11.9467 20.4484C13.837 22.4743 16.0568 24.0326 18.5706 25.1794C21.2941 26.4215 24.1154 27.2791 27.1159 27.4638H27.1164ZM19.5861 33.8803C19.6283 33.9035 19.6775 33.9417 19.7337 33.9606C20.2144 34.1206 20.6952 34.2795 21.1775 34.4341C23.878 35.2986 26.6303 35.8254 29.4789 35.6843C30.3308 35.6423 31.204 35.6374 31.9901 35.2566C32.8548 34.8375 33.6954 34.3662 34.5307 33.8895C35.3595 33.416 36.1632 32.8881 37.0889 32.6242C38.2118 32.3037 39.368 32.2169 40.5289 32.287C41.9679 32.3737 43.2909 32.7982 44.4021 33.7683C44.624 33.9617 44.8267 34.1793 45.0593 34.3581C45.3662 34.5935 45.6994 34.4518 45.7389 34.0661C45.7561 33.8965 45.74 33.6864 45.6528 33.5512C45.4919 33.3002 45.2887 33.0653 45.0636 32.8709C44.8218 32.6624 44.5336 32.51 44.2673 32.3301C42.3727 31.0524 40.3054 30.776 38.1054 31.2409C36.6889 31.5404 35.3734 32.1033 34.1077 32.7895C33.3633 33.193 32.6574 33.6756 31.8944 34.0371C30.5725 34.6635 29.1484 34.7481 27.7324 34.531C26.1073 34.2816 24.4988 33.9218 22.8823 33.6153C22.7283 33.5862 22.5609 33.5641 22.4101 33.5938C21.593 33.7537 20.777 33.7435 19.9711 33.5571C19.684 33.4909 19.5947 33.5733 19.5877 33.8809L19.5861 33.8803ZM15.7953 20.0121C15.9215 19.5957 16.0407 19.2219 16.1477 18.8448C16.2343 18.5389 16.4001 18.2184 16.368 17.9221C16.2669 16.9886 16.1188 16.0578 15.9354 15.1367C15.5177 13.0392 14.5049 11.1948 13.4504 9.37202C13.406 9.295 13.3472 9.22605 13.2905 9.1571C13.0627 8.88077 12.8002 8.79889 12.4868 8.90393C12.1927 9.00305 12.0045 9.26591 11.9697 9.5891C11.9382 9.8859 12.1071 10.0954 12.2408 10.3276C13.8333 13.0898 14.8798 16.0201 14.9488 19.252C14.9504 19.3248 14.976 19.4244 15.0268 19.4632C15.2787 19.6571 15.5434 19.8349 15.7947 20.0121H15.7953ZM17.2503 21.4934C17.8284 21.8166 18.3883 22.1365 18.9578 22.4398C19.0219 22.4737 19.1455 22.4312 19.2262 22.3919C21.5631 21.2698 23.5994 19.7341 25.3335 17.8036C25.6966 17.3991 25.9646 16.8987 26.2282 16.416C26.3726 16.1515 26.3079 15.8537 26.0763 15.6253C25.7298 15.2827 25.2325 15.3107 24.9346 15.705C24.7683 15.9253 24.6582 16.1925 24.4758 16.3966C22.8994 18.1602 21.0786 19.6135 18.9813 20.7021C18.4396 20.9833 17.8701 21.2111 17.2493 21.4929L17.2503 21.4934ZM20.3764 23.1029C20.3732 23.1358 20.37 23.1681 20.3668 23.2009C20.9679 23.4088 21.5679 23.6216 22.1727 23.8182C22.2534 23.8446 22.3721 23.8139 22.4518 23.7703C23.8165 23.0226 25.1116 22.1791 26.2282 21.0743C26.6624 20.645 26.9581 20.1441 27.1105 19.5666C27.1955 19.245 27.2196 18.8965 27.2078 18.562C27.1955 18.2232 27.0196 18.1268 26.7223 18.2986C26.418 18.4748 26.133 18.6967 25.872 18.9348C25.5303 19.2472 25.2453 19.6253 24.8924 19.9232C23.4812 21.1158 22.0732 22.317 20.3764 23.1024V23.1029ZM11.0735 28.7178C10.8157 28.601 10.5788 28.399 10.3451 28.4038C9.54623 28.4194 8.74839 28.511 7.95001 28.5665C6.67411 28.6543 5.40248 28.8816 4.11802 28.6817C4.00465 28.664 3.88648 28.6699 3.77151 28.6769C3.29612 28.706 2.98275 28.999 2.97687 29.4132C2.97046 29.8576 3.25654 30.19 3.73247 30.2164C4.44208 30.2552 5.1565 30.2993 5.8645 30.2632C7.13453 30.1981 8.40081 30.0661 9.66976 29.9815C9.90558 29.9659 10.0697 29.8867 10.2157 29.7127C10.4778 29.3992 10.7489 29.0933 11.074 28.7178H11.0735ZM13.798 18.2792C13.8173 18.2663 13.8365 18.2534 13.8552 18.2404C13.8552 18.1963 13.8616 18.151 13.8541 18.1079C13.5788 16.4866 13.2264 14.8814 12.5552 13.3753C12.0462 12.2323 11.4531 11.127 10.8959 10.0055C10.8681 9.95 10.8286 9.89937 10.7884 9.85197C10.489 9.49645 9.99221 9.53631 9.75746 9.94084C9.58741 10.2333 9.58794 10.5393 9.72751 10.8447C9.8243 11.0564 9.92858 11.2643 10.0232 11.4771C10.6569 12.9002 11.289 14.3244 11.9226 15.747C11.9553 15.8197 11.998 15.8898 12.0451 15.9544C12.4221 16.4769 12.7959 17.0021 13.1809 17.5187C13.3756 17.7804 13.5916 18.0261 13.7975 18.2792H13.798ZM9.23822 27.3615C8.71631 26.8993 8.25428 26.4943 7.79815 26.0827C7.63772 25.9378 7.46393 25.8791 7.24522 25.87C5.52922 25.7967 3.81001 25.7445 2.14962 25.215C1.77851 25.0965 1.43841 25.3378 1.31809 25.7407C1.19938 26.1382 1.35124 26.5169 1.73198 26.6386C2.29881 26.8202 2.87046 27.0103 3.45494 27.1051C5.14634 27.3798 6.85646 27.4127 8.56658 27.4208C8.76711 27.4218 8.96817 27.3863 9.23875 27.3615H9.23822ZM22.4406 16.813C22.8357 16.3675 23.1999 15.9684 23.547 15.5547C23.6197 15.468 23.6678 15.3236 23.6598 15.2105C23.5587 13.7443 23.2309 12.3265 22.7144 10.9551C22.6582 10.8059 22.5058 10.6551 22.3598 10.5867C21.9342 10.3863 21.5983 10.5544 21.4711 11.0128C21.4107 11.2304 21.3246 11.4744 21.3673 11.6818C21.5032 12.3368 21.7224 12.9746 21.8577 13.6296C22.0689 14.6535 22.2368 15.6867 22.4406 16.8125V16.813ZM17.1968 15.6899C17.2193 15.6888 17.2418 15.6878 17.2642 15.6867C17.4829 15.0338 17.7043 14.3826 17.9155 13.7276C17.9375 13.6597 17.9065 13.5692 17.8851 13.4938C17.5246 12.2016 16.9669 10.9885 16.3942 9.78356C16.2803 9.54386 16.1209 9.3187 15.9477 9.11724C15.6145 8.73049 15.0071 8.87377 14.8579 9.36017C14.7755 9.62896 14.837 9.87621 14.9814 10.1046C15.9236 11.5934 16.5696 13.2089 17.0086 14.9132C17.0749 15.1712 17.1343 15.4314 17.1974 15.6905L17.1968 15.6899ZM6.42385 24.6305C6.35005 24.5233 6.30781 24.4603 6.26396 24.3978C5.98589 24.0035 5.6998 23.6146 5.43296 23.2128C5.34473 23.0797 5.25436 23.0313 5.09554 23.0162C4.46775 22.958 3.83835 22.9009 3.21751 22.7942C2.80843 22.7237 2.41753 22.5545 2.01219 22.4554C1.58439 22.3509 1.23467 22.582 1.12077 23.0119C1.01435 23.4132 1.19991 23.7676 1.58493 23.9152C3.12553 24.5072 4.741 24.581 6.42438 24.6305H6.42385ZM13.8782 30.8412C13.5734 30.8251 13.3092 30.8057 13.0445 30.8014C12.9836 30.8003 12.9082 30.8401 12.8627 30.8848C12.6333 31.1095 12.4216 31.3529 12.1847 31.5679C11.9611 31.7704 11.8055 32.0042 11.6911 32.2843C11.4478 32.8806 11.0916 33.3977 10.5874 33.8092C10.2933 34.0489 10.2548 34.475 10.4687 34.8063C10.6804 35.1338 11.0483 35.242 11.3997 35.0605C11.5392 34.9883 11.6713 34.8881 11.7836 34.7766C12.8708 33.6977 13.3927 32.3123 13.8782 30.8412ZM14.6236 31.333C14.4568 31.8948 14.3167 32.4507 14.1258 32.9878C13.9135 33.5862 13.6515 34.1663 13.4189 34.7578C13.2798 35.1101 13.4205 35.457 13.7622 35.6412C14.1199 35.834 14.5033 35.7802 14.6905 35.472C15.2889 34.4868 15.729 33.4322 15.9867 32.3042C16.0006 32.2444 15.9685 32.1345 15.9225 32.1065C15.4926 31.8404 15.0547 31.5873 14.6236 31.333ZM20.7871 2.85321C20.8529 2.88607 20.9128 2.9227 20.977 2.94694C21.9737 3.32184 22.9705 3.69729 23.9694 4.06681C24.3218 4.19716 24.4031 4.14437 24.4961 3.76731C24.6662 3.07514 24.2282 2.25531 23.5635 2.01022C23.355 1.93319 23.1566 1.82977 22.9475 1.75543C22.7224 1.67571 22.494 1.58899 22.2598 1.5529C21.6475 1.4581 21.2657 1.64339 21.0668 2.11095C20.9657 2.34849 20.8839 2.59412 20.7877 2.85321H20.7871ZM30.2725 3.70483C30.3366 3.74415 30.388 3.76624 30.4286 3.80071C31.274 4.52682 32.12 5.25239 32.9622 5.98226C33.1243 6.12285 33.259 6.08407 33.3713 5.93432C33.7125 5.47916 33.7526 4.95559 33.6275 4.42932C33.5799 4.23002 33.3997 4.05819 33.2649 3.88636C33.189 3.7894 33.082 3.71722 32.9879 3.6348C32.766 3.44143 32.5548 3.23297 32.3189 3.05844C31.6858 2.59035 31.15 2.65984 30.6457 3.25774C30.5366 3.38702 30.4286 3.51792 30.273 3.70429L30.2725 3.70483ZM23.9844 24.3607C24.5523 24.4775 25.063 24.5589 25.5603 24.6919C25.9945 24.8083 26.3041 24.6542 26.6143 24.3714C27.1918 23.8446 27.6848 23.271 27.8656 22.4813C27.9217 22.2357 27.857 22.0326 27.6608 21.8855C27.4629 21.7369 27.2367 21.6738 27.0153 21.8236C26.8399 21.9421 26.6784 22.0843 26.5244 22.2308C26.1383 22.5987 25.7806 22.9995 25.3737 23.3415C24.9533 23.6954 24.4881 23.9954 23.9844 24.3612V24.3607ZM20.0219 18.7091C20.5005 18.3907 20.9315 18.1112 21.3518 17.8155C21.4005 17.781 21.4107 17.6555 21.4005 17.5779C21.2663 16.576 21.1299 15.5741 20.9834 14.5738C20.9342 14.2377 20.8534 13.9059 20.7871 13.5725C20.7128 13.6252 20.6925 13.6727 20.6786 13.7222C20.4428 14.5383 20.2064 15.3538 19.9738 16.1704C19.9102 16.3934 19.7984 16.6229 19.8123 16.8432C19.8492 17.4379 19.9417 18.0293 20.0224 18.7096L20.0219 18.7091ZM16.9771 32.6436C16.838 33.0201 16.691 33.3745 16.5776 33.7397C16.4803 34.0521 16.3685 34.3753 16.3584 34.6964C16.3423 35.193 16.6744 35.5211 17.1209 35.5157C17.4995 35.5108 17.8503 35.3659 18.0049 35.0147C18.2305 34.5025 18.3883 33.9595 18.5594 33.4246C18.5776 33.3686 18.5097 33.235 18.4519 33.2118C17.9589 33.0104 17.4589 32.8262 16.9771 32.643V32.6436ZM8.69812 31.3362C7.90028 31.3664 7.16554 31.388 6.43187 31.4251C6.18428 31.4375 6.03455 31.6158 5.94204 31.8302C5.7998 32.1598 5.89498 32.5574 6.14952 32.7583C6.34631 32.9134 7.16822 33.0001 7.32864 32.8822C7.34254 32.8719 7.35484 32.8579 7.36661 32.8445C7.79654 32.3575 8.22594 31.8706 8.69812 31.3362ZM3.84263 21.516C3.83407 21.4498 3.83888 21.4191 3.82658 21.4007C3.43782 20.8335 3.0512 20.2653 2.65335 19.7051C2.59774 19.6269 2.48972 19.5607 2.3956 19.5408C1.99882 19.4573 1.663 19.691 1.55819 20.1026C1.45017 20.5276 1.63894 20.8906 2.03786 21.0156C2.38491 21.1239 2.73303 21.2311 3.08329 21.3296C3.32767 21.398 3.57632 21.4508 3.84263 21.5155V21.516ZM18.5476 11.7303C18.5813 11.6947 18.607 11.6796 18.6145 11.6581C18.8268 11.03 19.0423 10.403 19.2385 9.76955C19.2583 9.70599 19.1802 9.56486 19.1112 9.52877C18.8391 9.38549 18.5562 9.39411 18.3086 9.5891C18.0476 9.79487 17.9236 10.0927 18.0193 10.4025C18.1583 10.8517 18.3647 11.2794 18.5476 11.7297V11.7303Z" fill="#423A2F"/>
</svg>
