<svg width="15" height="12" viewBox="0 0 15 12" fill="none" xmlns="http://www.w3.org/2000/svg">
<path fill-rule="evenodd" clip-rule="evenodd" d="M12.5671 0.103002C12.7225 0.00705494 12.9081 -0.0233759 13.0849 0.0180967C13.2617 0.0595693 13.416 0.169721 13.5154 0.325432L14.2098 1.41239C14.3003 1.55438 14.339 1.72463 14.3191 1.89309C14.2992 2.06154 14.222 2.21736 14.1011 2.33306L14.0989 2.33594L14.0491 2.38345L13.8913 2.53821C13.0182 3.40753 12.1714 4.3044 11.3523 5.22752C9.81139 6.96665 7.98148 9.24278 6.74985 11.4512C6.40617 12.0674 5.56661 12.1999 5.06863 11.6679L0.520159 6.81765C0.454976 6.74811 0.40408 6.66584 0.370495 6.57571C0.336911 6.48559 0.321324 6.38945 0.324661 6.29302C0.327998 6.19659 0.35019 6.10184 0.38992 6.01439C0.429649 5.92693 0.486104 5.84857 0.555929 5.78396L1.93064 4.51129C2.05145 4.3995 2.20636 4.33429 2.36885 4.3268C2.53134 4.31932 2.69132 4.37003 2.8214 4.47025L5.14228 6.25617C8.76773 2.58716 10.8235 1.17916 12.5671 0.103002Z" fill="#692F6C"/>
</svg>
