<svg width="15" height="13" viewBox="0 0 15 13" fill="none" xmlns="http://www.w3.org/2000/svg">
<path fill-rule="evenodd" clip-rule="evenodd" d="M12.5615 0.406713C12.7169 0.310766 12.9025 0.280335 13.0793 0.321808C13.2561 0.36328 13.4104 0.473432 13.5098 0.629143L14.2041 1.7161C14.2947 1.85809 14.3334 2.02834 14.3135 2.1968C14.2936 2.36525 14.2164 2.52107 14.0954 2.63677L14.0933 2.63965L14.0435 2.68716L13.8857 2.84192C13.0125 3.71124 12.1658 4.60811 11.3467 5.53123C9.80577 7.27036 7.97586 9.54649 6.74423 11.7549C6.40056 12.3711 5.561 12.5036 5.06302 11.9716L0.514544 7.12136C0.449361 7.05182 0.398464 6.96955 0.36488 6.87942C0.331295 6.7893 0.315709 6.69316 0.319045 6.59673C0.322382 6.5003 0.344575 6.40555 0.384305 6.3181C0.424034 6.23064 0.480489 6.15228 0.550314 6.08767L1.92503 4.815C2.04583 4.70321 2.20074 4.638 2.36323 4.63051C2.52573 4.62303 2.6857 4.67374 2.81578 4.77397L5.13666 6.55988C8.76212 2.89087 10.8179 1.48287 12.5615 0.406713Z" fill="#692F6C"/>
</svg>
