<svg width="15" height="12" viewBox="0 0 15 12" fill="none" xmlns="http://www.w3.org/2000/svg">
<path fill-rule="evenodd" clip-rule="evenodd" d="M12.3249 0.103002C12.4804 0.00705494 12.6659 -0.0233759 12.8427 0.0180967C13.0196 0.0595693 13.1738 0.169721 13.2732 0.325432L13.9676 1.41239C14.0581 1.55438 14.0968 1.72463 14.0769 1.89309C14.057 2.06154 13.9798 2.21736 13.8589 2.33306L13.8568 2.33594L13.807 2.38345L13.6491 2.53821C12.776 3.40753 11.9292 4.3044 11.1101 5.22752C9.5692 6.96665 7.73929 9.24278 6.50766 11.4512C6.16398 12.0674 5.32443 12.1999 4.82644 11.6679L0.277971 6.81765C0.212789 6.74811 0.161892 6.66584 0.128308 6.57571C0.0947232 6.48559 0.0791363 6.38945 0.0824732 6.29302C0.0858101 6.19659 0.108003 6.10184 0.147732 6.01439C0.187462 5.92693 0.243917 5.84857 0.313742 5.78396L1.68845 4.51129C1.80926 4.3995 1.96417 4.33429 2.12666 4.3268C2.28916 4.31932 2.44913 4.37003 2.57921 4.47025L4.90009 6.25617C8.52554 2.58716 10.5813 1.17916 12.3249 0.103002Z" fill="#692F6C"/>
</svg>
