<svg width="38" height="37" viewBox="0 0 38 37" fill="none" xmlns="http://www.w3.org/2000/svg">
<rect x="0.853027" width="37" height="37" rx="18.5" fill="#F5E0C7"/>
<path d="M17.353 17.1801C16.253 17.1801 15.353 18.1001 15.353 19.2301C15.353 19.8001 15.573 20.3001 15.943 20.6801L19.353 24.1801L22.773 20.6801C23.133 20.3101 23.353 19.7901 23.353 19.2301C23.353 18.1001 22.453 17.1801 21.353 17.1801C20.813 17.1801 20.303 17.4101 19.943 17.7801L19.353 18.3801L18.773 17.7901C18.5886 17.5993 18.3681 17.4471 18.1243 17.3424C17.8805 17.2376 17.6183 17.1825 17.353 17.1801ZM19.353 8.82007L28.383 14.4701C28.963 14.8201 29.353 15.4501 29.353 16.1801V26.1801C29.353 27.2801 28.453 28.1801 27.353 28.1801H11.353C10.253 28.1801 9.35303 27.2801 9.35303 26.1801V16.1801C9.35303 15.4501 9.74303 14.8201 10.323 14.4701L19.353 8.82007ZM11.353 18.1801V26.1801H27.353V18.1801L25.353 19.4301V19.2301C25.353 18.6801 25.233 18.1301 25.023 17.6301L27.353 16.1801L19.353 11.1801L11.353 16.1801L13.683 17.6301C13.473 18.1301 13.353 18.6801 13.353 19.2301V19.4301L11.353 18.1801Z" fill="#692F6C"/>
</svg>
