<svg width="20" height="18" viewBox="0 0 20 18" fill="none" xmlns="http://www.w3.org/2000/svg">
<path fill-rule="evenodd" clip-rule="evenodd" d="M9.3272 17.1581C9.10816 17.3858 8.81112 17.5137 8.5014 17.5137C8.19168 17.5137 7.89464 17.3858 7.6756 17.1581L0.667424 9.87041C0.448452 9.64264 0.325441 9.33376 0.325441 9.01169C0.325441 8.68962 0.448452 8.38073 0.667424 8.15296L7.67561 0.865325C7.8959 0.644074 8.19095 0.521649 8.4972 0.524417C8.80345 0.527185 9.09641 0.654924 9.31297 0.880122C9.52953 1.10532 9.65237 1.40996 9.65504 1.72842C9.6577 2.04689 9.53997 2.3537 9.3272 2.58278L4.31285 7.79708L17.8456 7.79708C18.1554 7.79708 18.4525 7.92505 18.6716 8.15283C18.8906 8.38062 19.0137 8.68956 19.0137 9.01169C19.0137 9.33382 18.8906 9.64276 18.6716 9.87055C18.4525 10.0983 18.1554 10.2263 17.8456 10.2263L4.31285 10.2263L9.3272 15.4406C9.54617 15.6684 9.66918 15.9773 9.66918 16.2993C9.66918 16.6214 9.54617 16.9303 9.3272 17.1581Z" fill="#FFD9AB"/>
</svg>
