<svg width="20" height="18" viewBox="0 0 20 18" fill="none" xmlns="http://www.w3.org/2000/svg">
<path fill-rule="evenodd" clip-rule="evenodd" d="M10.1914 0.85562C10.4104 0.627916 10.7074 0.5 11.0172 0.5C11.3269 0.5 11.6239 0.627916 11.843 0.85562L18.8511 8.14326C19.0701 8.37103 19.1931 8.67991 19.1931 9.00198C19.1931 9.32405 19.0701 9.63294 18.8511 9.86071L11.843 17.1483C11.6227 17.3696 11.3276 17.492 11.0214 17.4893C10.7151 17.4865 10.4221 17.3587 10.2056 17.1336C9.98902 16.9084 9.86618 16.6037 9.86352 16.2852C9.86086 15.9668 9.97859 15.66 10.1914 15.4309L15.2057 10.2166L1.67291 10.2166C1.36313 10.2166 1.06604 10.0886 0.84699 9.86084C0.627941 9.63306 0.504882 9.32412 0.504882 9.00198C0.504882 8.67985 0.627941 8.37091 0.84699 8.14313C1.06604 7.91534 1.36313 7.78738 1.67291 7.78738L15.2057 7.78738L10.1914 2.57307C9.97238 2.3453 9.84937 2.03642 9.84937 1.71435C9.84937 1.39228 9.97238 1.08339 10.1914 0.85562Z" fill="white"/>
</svg>
