<svg width="38" height="37" viewBox="0 0 38 37" fill="none" xmlns="http://www.w3.org/2000/svg">
<g clip-path="url(#clip0_497_85)">
<path d="M19.353 0C14.4476 0 9.73881 1.9503 6.27295 5.41848C2.80354 8.88804 0.85402 13.5934 0.853027 18.5C0.853027 23.4045 2.8042 28.1133 6.27295 31.5815C9.73881 35.0497 14.4476 37 19.353 37C24.2584 37 28.9672 35.0497 32.4331 31.5815C35.9019 28.1133 37.853 23.4045 37.853 18.5C37.853 13.5955 35.9019 8.88665 32.4331 5.41848C28.9672 1.9503 24.2584 0 19.353 0Z" fill="url(#paint0_linear_497_85)"/>
<path d="M9.22708 18.3046C14.621 15.9551 18.2169 14.4061 20.0149 13.6576C25.1544 11.5206 26.2211 11.1494 26.9177 11.1368C27.0709 11.1344 27.412 11.1722 27.6346 11.3522C27.8196 11.5039 27.8716 11.7092 27.8976 11.8533C27.9207 11.9972 27.9525 12.3253 27.9265 12.5814C27.649 15.5067 26.4436 22.6055 25.8308 25.8821C25.5736 27.2684 25.0619 27.7332 24.5676 27.7786C23.4923 27.8774 22.6772 27.0687 21.6365 26.3868C20.0091 25.3192 19.0899 24.655 17.5087 23.6135C15.6818 22.4098 16.867 21.7482 17.9076 20.6671C18.1793 20.3841 22.9142 16.0785 23.0038 15.688C23.0154 15.6391 23.0269 15.457 22.9171 15.361C22.8101 15.2648 22.6511 15.2977 22.5355 15.3238C22.3708 15.3608 19.7721 17.0801 14.7308 20.4815C13.9937 20.9885 13.326 21.2357 12.7247 21.2227C12.0657 21.2085 10.7938 20.8492 9.84856 20.5422C8.69231 20.1656 7.7702 19.9664 7.85114 19.3267C7.89161 18.9937 8.35122 18.6529 9.22708 18.3046Z" fill="white"/>
</g>
<defs>
<linearGradient id="paint0_linear_497_85" x1="1850.85" y1="0" x2="1850.85" y2="3700" gradientUnits="userSpaceOnUse">
<stop stop-color="#2AABEE"/>
<stop offset="1" stop-color="#229ED9"/>
</linearGradient>
<clipPath id="clip0_497_85">
<rect width="37" height="37" fill="white" transform="translate(0.853027)"/>
</clipPath>
</defs>
</svg>
