<svg width="33" height="33" viewBox="0 0 33 33" fill="none" xmlns="http://www.w3.org/2000/svg">
<path d="M0.701029 16.3565C0.700259 19.1384 1.42713 21.8546 2.80925 24.2488L0.568848 32.4289L8.94015 30.2339C11.2556 31.4944 13.8498 32.1548 16.486 32.155H16.493C25.1957 32.155 32.28 25.0733 32.2837 16.369C32.2854 12.1511 30.6443 8.18493 27.6627 5.20097C24.6815 2.21727 20.7167 0.573214 16.4923 0.571289C7.78851 0.571289 0.70475 7.65261 0.701157 16.3565" fill="url(#paint0_linear_497_81)"/>
<path d="M0.137314 16.3515C0.136416 19.2334 0.889336 22.0468 2.32074 24.5267L0 33L8.67147 30.7264C11.0607 32.029 13.7508 32.7159 16.4881 32.7169H16.4952C25.5102 32.7169 32.849 25.3805 32.8528 16.3645C32.8543 11.9951 31.1542 7.88634 28.066 4.79548C24.9775 1.70501 20.8709 0.00179664 16.4952 0C7.47863 0 0.140908 7.33542 0.137314 16.3515ZM5.30149 24.0996L4.97771 23.5856C3.61663 21.4214 2.89823 18.9205 2.89926 16.3525C2.90208 8.85858 9.0009 2.76169 16.5003 2.76169C20.1321 2.76323 23.5452 4.17898 26.1123 6.74766C28.6793 9.31659 30.0919 12.7315 30.091 16.3635C30.0876 23.8574 23.9887 29.9551 16.4952 29.9551H16.4898C14.0498 29.9538 11.6568 29.2985 9.56992 28.0603L9.07328 27.7658L3.92745 29.1149L5.30149 24.0996Z" fill="url(#paint1_linear_497_81)"/>
<path d="M12.407 9.51552C12.1008 8.83498 11.7785 8.82125 11.4874 8.80931C11.2489 8.79905 10.9763 8.79982 10.704 8.79982C10.4314 8.79982 9.98857 8.90235 9.61423 9.31109C9.2395 9.72021 8.18359 10.7089 8.18359 12.7197C8.18359 14.7305 9.64824 16.674 9.85241 16.9469C10.0568 17.2194 12.6799 21.4779 16.8343 23.1162C20.2869 24.4777 20.9895 24.2069 21.7388 24.1386C22.4883 24.0706 24.1571 23.1502 24.4976 22.1958C24.8383 21.2415 24.8383 20.4235 24.7361 20.2526C24.634 20.0823 24.3614 19.98 23.9527 19.7757C23.5439 19.5714 21.5344 18.5825 21.1598 18.4461C20.7851 18.3098 20.5126 18.2418 20.2401 18.651C19.9675 19.0596 19.1848 19.98 18.9462 20.2526C18.7079 20.5258 18.4693 20.5598 18.0607 20.3554C17.6517 20.1503 16.3355 19.7193 14.7738 18.327C13.5587 17.2436 12.7385 15.9058 12.5 15.4965C12.2616 15.0879 12.4745 14.8664 12.6794 14.6628C12.8631 14.4796 13.0883 14.1855 13.2928 13.9469C13.4966 13.7082 13.5647 13.5379 13.7009 13.2654C13.8374 12.9925 13.7691 12.7538 13.6671 12.5494C13.5647 12.345 12.7704 10.3236 12.407 9.51552Z" fill="white"/>
<defs>
<linearGradient id="paint0_linear_497_81" x1="1586.31" y1="3186.33" x2="1586.31" y2="0.571289" gradientUnits="userSpaceOnUse">
<stop stop-color="#1FAF38"/>
<stop offset="1" stop-color="#60D669"/>
</linearGradient>
<linearGradient id="paint1_linear_497_81" x1="1642.64" y1="3300" x2="1642.64" y2="0" gradientUnits="userSpaceOnUse">
<stop stop-color="#F9F9F9"/>
<stop offset="1" stop-color="white"/>
</linearGradient>
</defs>
</svg>
