<svg width="46" height="44" viewBox="0 0 46 44" fill="none" xmlns="http://www.w3.org/2000/svg">
<rect x="4.95349" y="3.66211" width="37" height="37" rx="18.5" fill="#F5E0C7"/>
<g clip-path="url(#clip0_124_13777)">
<path d="M45.4471 17.1145C45.4469 17.8744 45.4467 18.6344 45.4466 19.3944C44.9584 19.1995 44.4732 19.0059 43.9874 18.8346L43.9874 18.8346C42.545 18.3263 41.0622 18.0374 39.5606 17.8884L39.5605 17.8884C36.5712 17.5922 33.6456 17.9648 30.7708 18.5417C30.2214 18.6519 29.6744 18.7756 29.1344 18.8977C29.0575 18.9151 28.9807 18.9325 28.9041 18.9498C28.2867 19.0891 27.6773 19.224 27.0661 19.3365C26.53 19.4353 25.9983 19.4834 25.441 19.5338C25.1912 19.5564 24.9364 19.5795 24.6737 19.6077C24.6982 19.3985 24.7221 19.194 24.7457 18.9897C24.8431 18.152 24.9403 17.3144 25.0374 16.4768C25.2053 15.0294 25.3731 13.5823 25.5425 12.135L25.5425 12.135C25.8377 9.61182 26.1339 7.08947 26.4392 4.56837C29.0752 3.86493 31.7026 3.23498 34.3836 2.93123C37.1567 2.61722 39.8878 2.68148 42.5426 3.47152C43.2148 3.67164 43.85 3.93105 44.5106 4.20085C44.817 4.32596 45.1287 4.45329 45.4522 4.57798C45.448 6.34958 45.4481 8.12108 45.4482 9.89201C45.4482 10.4902 45.4482 11.0883 45.4481 11.6863V11.6865C45.4481 13.496 45.4476 15.3051 45.4471 17.1145Z" fill="#423A2F" stroke="#423A2F"/>
<path d="M21.7715 22.2674C28.9142 21.5657 36.0164 20.8685 43.1773 20.1653C43.0819 20.2424 43.0334 20.2903 42.9762 20.3261C40.1673 22.0862 37.3308 23.8 34.3585 25.26C33.4312 25.7154 32.4731 26.1262 31.494 26.4457C30.8551 26.6544 30.1548 26.721 29.4787 26.7441C28.4926 26.7777 27.5038 26.705 26.516 26.694C24.8636 26.6759 23.2111 26.672 21.5591 26.6588C21.3958 26.6577 21.2976 26.6896 21.2739 26.8901C20.9865 29.2741 20.6927 31.6576 20.3946 34.04C20.3757 34.1893 20.3999 34.268 20.5412 34.3396C23.5701 35.8772 24.0155 39.806 21.7899 42.124C20.4533 43.5162 18.8213 44.0025 16.9801 43.4182C15.1848 42.8488 14.011 41.5876 13.6299 39.702C13.2056 37.6026 14.0105 35.9389 15.6231 34.6414C15.6792 34.5963 15.7358 34.5428 15.801 34.5181C16.187 34.3732 16.2636 34.0654 16.3008 33.6832C16.4501 32.1412 16.6356 30.603 16.793 29.0621C16.9106 27.9133 16.0528 27.0597 14.9281 27.1704C13.4266 27.318 11.9245 27.459 10.4214 27.5922C10.168 27.6148 10.0122 27.7051 9.87416 27.9414C8.89075 29.6216 6.85385 30.5887 5.01643 30.272C3.06795 29.9361 1.49849 28.4387 1.08173 26.5189C0.465483 23.6811 2.13954 21.1103 4.92747 20.6119C6.98432 20.2446 8.97432 21.2695 10.0192 23.2526C10.1281 23.4591 10.2386 23.5098 10.4564 23.4888C12.6912 23.2746 14.9276 23.0714 17.1629 22.8649C17.2508 22.8566 17.3376 22.8429 17.4519 22.8285C17.4842 22.3428 17.5403 21.8692 17.5435 21.3945C17.557 19.6515 17.5344 17.9079 17.564 16.1649C17.5797 15.222 17.6271 14.2742 17.7441 13.3397C17.874 12.3027 18.3253 11.3599 18.7631 10.4253C19.9983 7.79121 21.4621 5.28765 22.9668 2.80832C23.3356 2.20033 23.7119 1.59674 24.0861 0.992051C24.16 0.871995 24.2398 0.755794 24.3767 0.661621C23.5103 7.84573 22.6444 15.0293 21.7715 22.2668V22.2674ZM9.20292 25.44C9.18513 23.4283 7.65772 21.8852 5.70007 21.9017C3.80658 21.9177 2.263 23.5538 2.28511 25.5215C2.30667 27.4358 3.87128 28.9856 5.76908 28.9734C7.67228 28.9608 9.21909 27.3687 9.20238 25.4406L9.20292 25.44ZM21.7575 38.7002C21.7737 36.8162 20.2404 35.2439 18.363 35.2202C16.4879 35.1965 14.8667 36.7799 14.844 38.6573C14.8208 40.5655 16.4119 42.2777 18.2202 42.2909C20.1778 42.3052 21.7403 40.7191 21.7575 38.7002ZM19.3783 26.1543C20.2393 26.1499 20.8674 25.5056 20.8739 24.6195C20.8803 23.7405 20.2398 23.089 19.3756 23.0951C18.4994 23.1011 17.88 23.7328 17.8783 24.6217C17.8767 25.4929 18.528 26.1587 19.3783 26.1543Z" fill="#423A2F"/>
<path d="M15.1712 20.4771C15.1473 20.4792 15.1235 20.4814 15.0998 20.4835C14.7128 20.5184 14.3371 20.5522 13.9609 20.5853L13.9608 20.5853C13.7121 20.6072 13.4628 20.6288 13.2132 20.6505C12.6405 20.7002 12.0659 20.7501 11.4926 20.8035C10.0276 19.0292 8.14865 18.0873 5.87561 18.0393V5.03695C9.84054 6.77751 13.9388 6.92167 18.1057 6.33897C18.0887 6.36928 18.0718 6.39953 18.055 6.42977L18.0549 6.43002C17.2549 7.87096 16.4784 9.34794 15.8682 10.9195L15.8682 10.9196C15.2741 12.451 15.1614 14.036 15.1647 15.5866V15.5867C15.1672 16.6571 15.1683 17.7275 15.1694 18.7982C15.1699 19.3335 15.1705 19.8689 15.1712 20.4044V20.4047V20.4057V20.4066V20.4076V20.4086V20.4095V20.4105V20.4114V20.4124V20.4134V20.4143V20.4153V20.4163V20.4172V20.4182V20.4191V20.4201V20.4211V20.422V20.423V20.424V20.4249V20.4259V20.4268V20.4278V20.4288V20.4297V20.4307V20.4317V20.4326V20.4336V20.4345V20.4355V20.4365V20.4374V20.4384V20.4394V20.4403V20.4413V20.4422V20.4432V20.4442V20.4451V20.4461V20.4471V20.448V20.449V20.45V20.4509V20.4519V20.4528V20.4538V20.4548V20.4557V20.4567V20.4577V20.4586V20.4596V20.4606V20.4615V20.4625V20.4635V20.4644V20.4654V20.4664V20.4673V20.4683V20.4693V20.4702V20.4712V20.4722V20.4731V20.4741V20.4751V20.476V20.477V20.4771ZM11.4625 20.8063C11.4271 20.8096 11.4356 20.8044 11.463 20.8121L11.4699 20.8863L11.4701 20.8876L11.4625 20.8063Z" fill="#423A2F" stroke="#423A2F"/>
<path d="M20.2615 24.655C20.2685 25.1793 19.8437 25.6253 19.3336 25.6292C18.8473 25.633 18.4025 25.1919 18.3896 24.6924C18.3761 24.1615 18.8053 23.721 19.3423 23.7149C19.841 23.7094 20.2545 24.1318 20.2615 24.6544V24.655Z" fill="#423A2F"/>
</g>
<defs>
<clipPath id="clip0_124_13777">
<rect width="45" height="43" fill="white" transform="translate(0.953491 0.662109)"/>
</clipPath>
</defs>
</svg>
