<svg width="57" height="46" viewBox="0 0 57 46" fill="none" xmlns="http://www.w3.org/2000/svg">
<rect x="10.0326" y="4.66211" width="37" height="37" rx="18.5" fill="#F5E0C7"/>
<path d="M16.3948 40.9031C16.9293 43.1891 15.8135 44.2877 14.463 45.182C13.1004 46.0843 11.3355 45.8004 10.22 44.5363C9.06613 43.2289 7.94447 41.8933 6.80863 40.5702C5.12985 38.6148 3.44527 36.6643 1.77422 34.7022C0.70476 33.4461 0.610993 31.6941 1.61021 30.4936C2.90039 28.9433 4.4013 28.3066 6.18159 29.1095C6.56729 29.2833 6.89853 29.5775 7.30614 29.8511C7.53621 29.5021 7.81751 29.1521 8.016 28.7608C8.83187 27.1538 9.64065 25.543 10.4185 23.9177C11.5166 21.623 12.5893 19.3151 14.1234 17.2636C15.2071 15.8144 16.4763 14.5692 18.1219 13.7484C19.2171 13.2021 20.3752 12.9032 21.5954 12.8336C21.6879 12.8285 21.781 12.8249 21.8729 12.8143C21.9003 12.8111 21.9254 12.7864 21.9992 12.7444C21.8465 11.6869 21.6995 10.6085 21.5336 9.53268C21.1298 6.91561 22.7016 4.81048 25.3332 4.40825C32.2733 3.34815 39.2114 2.27361 46.1501 1.20484C47.2963 1.02843 48.4434 0.858103 49.5883 0.673988C51.9054 0.300947 54.0523 1.7373 54.4632 4.04451C54.8569 6.25646 55.1434 8.48733 55.474 10.7105C55.6825 12.1119 55.8806 13.5149 56.0907 14.916C56.4803 17.5144 54.9807 19.6224 52.3771 20.0163C47.8666 20.6989 43.3491 21.3337 38.8347 21.9899C37.9779 22.1144 37.1231 22.2504 36.2656 22.3694C36.0346 22.4015 35.9067 22.4663 35.9083 22.7363C35.9173 24.3565 35.3408 25.7749 34.3722 27.0534C34.3168 27.1266 34.2559 27.2013 34.223 27.2853C33.8025 28.3557 33.3733 29.4232 32.9722 30.5006C32.1347 32.7514 30.4556 33.8038 28.1102 33.9067C27.5859 33.9298 27.0565 33.9208 26.5342 33.8747C26.2245 33.8474 26.0611 33.9475 25.8929 34.1935C24.1942 36.6781 22.0395 38.6463 19.249 39.8545C18.3307 40.2523 17.3682 40.549 16.3938 40.9034L16.3948 40.9031ZM17.6034 23.3259C19.5671 22.6639 21.4875 22.0162 23.3077 21.4023C22.9362 18.9562 22.586 16.6493 22.2373 14.3559C21.3551 14.2334 20.0829 14.4602 19.0831 14.9124C17.3634 15.6906 16.1228 17.0034 15.0521 18.5043C13.5099 20.6662 12.4617 23.0866 11.3649 25.482C10.5374 27.2895 9.73055 29.1114 8.50675 30.7008C8.27571 31.001 8.31019 31.162 8.54155 31.4295C10.7526 33.985 12.955 36.5482 15.1407 39.1251C15.4094 39.4421 15.6421 39.5168 16.0448 39.4199C20.0227 38.4647 23.0161 36.1803 25.1022 32.7203C26.2397 30.8339 27.2595 28.8776 28.3467 26.9607C29.4851 24.9534 30.8977 23.1899 32.8314 21.8623C33.5145 21.3933 34.1245 20.8086 34.7241 20.2315C35.4829 19.5009 36.1599 18.6945 36.5373 17.6905C36.9874 16.4941 36.4328 15.6691 35.1488 15.6226C33.9031 15.5774 32.8681 16.0838 31.9501 16.8761C30.9332 17.7537 29.9233 18.6396 28.8977 19.507C27.0094 21.1047 24.9691 22.4525 22.5914 23.2294C21.211 23.6803 19.8281 24.1246 18.4451 24.5685C18.3036 24.6141 18.1541 24.6346 17.9762 24.6737C17.8454 24.2003 17.7239 23.7615 17.6034 23.3253V23.3259ZM23.6013 13.5582C24.0012 15.9485 24.2293 18.3105 24.7184 20.713C25.1396 20.4352 25.4808 20.2486 25.7782 20.008C27.5414 18.5796 29.3001 17.1459 31.0492 15.7002C32.4073 14.5776 33.9214 13.9476 35.713 14.2196C37.5316 14.4958 38.4803 15.935 38.0598 17.7235C37.8129 18.7737 37.2236 19.6337 36.5456 20.4461C36.4464 20.5648 36.3533 20.6886 36.2057 20.8756C36.4087 20.8606 36.5012 20.8593 36.5917 20.8461C41.8256 20.0846 47.0598 19.3244 52.293 18.5575C53.8171 18.3343 54.8708 16.9598 54.6652 15.4372C54.4036 13.4988 54.109 11.5653 53.8277 9.62954C53.7623 9.17984 53.6927 8.73078 53.6196 8.24387C43.5939 10.0186 33.6395 11.7812 23.6013 13.5582ZM53.0747 4.57665C53.0499 4.40087 53.0447 4.29374 53.0186 4.19174C52.6317 2.67776 51.3482 1.88806 49.6701 2.14498C46.3222 2.65787 42.9756 3.17943 39.6283 3.69553C34.9203 4.4214 30.2172 5.17967 25.5018 5.85198C23.8027 6.09415 22.4336 7.64726 23.1331 9.87813C33.0943 8.11428 43.061 6.3498 53.0747 4.57665ZM15.0672 41.9472C15.1068 41.926 15.1465 41.9045 15.1861 41.8833C14.957 41.4622 14.7878 40.9923 14.4882 40.6292C13.3691 39.274 12.2065 37.9541 11.061 36.62C9.45344 34.7478 7.84393 32.8771 6.24152 31.0007C5.78042 30.4605 5.21943 30.1106 4.50055 30.2507C3.57867 30.4307 2.91263 31.0183 2.53273 31.852C2.17732 32.6324 2.50631 33.3018 3.03765 33.918C5.76721 37.0832 8.48355 40.2593 11.2057 43.4307C11.8331 44.1614 12.5874 44.425 13.3436 44.0943C14.2188 43.712 15.1249 42.8822 15.0672 41.9472ZM53.3048 6.05951C53.0953 6.08774 52.9291 6.1041 52.7651 6.13296C50.2369 6.57946 47.709 7.02788 45.1812 7.47502C38.0694 8.73303 30.9576 9.99072 23.8462 11.2494C23.2362 11.3571 23.1847 11.4784 23.4956 12.0821C33.4549 10.3182 43.4199 8.5534 53.4111 6.78378C53.3731 6.52365 53.3441 6.32895 53.3048 6.05951ZM29.2392 28.4683C31.8051 28.3342 34.7802 24.9262 34.3497 22.6542C31.9868 24.0069 30.4911 26.0886 29.2392 28.4683ZM28.1011 30.5795C29.3984 30.7858 31.3578 30.1625 31.6089 29.4562C30.7376 29.6413 29.798 29.8815 28.8435 30.0236C28.4601 30.0807 28.1968 30.1484 28.1011 30.5795ZM29.7003 32.0803C28.965 32.0803 28.2136 32.0694 27.4635 32.0906C27.3278 32.0945 27.1957 32.2308 27.062 32.3058C27.0819 32.3475 27.1019 32.3889 27.1219 32.4306C28.0099 32.4598 28.8893 32.4277 29.7003 32.0803Z" fill="#423A2F"/>
<path d="M3.99502 32.7382C4.02531 32.0791 4.60273 31.5643 5.26683 31.604C5.90645 31.6422 6.42651 32.2176 6.38785 32.8438C6.34725 33.4962 5.80205 34.0023 5.16082 33.9825C4.49318 33.9616 3.96505 33.3974 3.99502 32.7382Z" fill="#423A2F"/>
</svg>
