<svg width="49" height="38" viewBox="0 0 49 38" fill="none" xmlns="http://www.w3.org/2000/svg">
<rect x="5.53259" y="0.662109" width="37" height="37" rx="18.5" fill="#F5E0C7"/>
<g clip-path="url(#clip0_124_13787)">
<path d="M18.1926 28.4129C17.4364 29.1681 16.6704 29.9293 15.9095 30.6953C15.7058 30.9 15.462 31.0075 15.187 30.9444C14.9998 30.9017 14.7949 30.814 14.6609 30.6828C13.6674 29.7113 12.6873 28.7259 11.7077 27.7406C11.3691 27.4003 11.3817 26.8878 11.7414 26.5208C12.3566 25.8938 12.9809 25.2755 13.6034 24.6559C13.7456 24.5143 13.8965 24.3813 14.0811 24.209C13.686 23.8256 13.3138 23.469 12.9467 23.1071C12.5416 22.7077 12.1404 22.3044 11.7396 21.9011C11.3748 21.5341 11.3713 21.0229 11.7396 20.6507C12.4335 19.9495 13.1326 19.2539 13.8317 18.5574C13.8974 18.4918 13.9769 18.44 14.0915 18.3489C13.7824 18.0518 13.5057 17.7927 13.2364 17.5263C12.7396 17.0354 12.2472 16.5397 11.7535 16.0462C11.3752 15.6679 11.3618 15.167 11.7418 14.7802C12.453 14.0561 13.1745 13.3415 13.8931 12.6247C13.9385 12.5794 13.9968 12.547 14.0491 12.5085C14.063 12.4757 14.0772 12.4433 14.0911 12.4105C14.0197 12.3734 13.9341 12.3509 13.8797 12.297C13.1741 11.5975 12.4724 10.8937 11.7703 10.1907C11.3627 9.78269 11.3596 9.29262 11.7699 8.87897C12.4595 8.1838 13.1529 7.49251 13.8464 6.80123C13.9073 6.74034 13.9787 6.69069 14.1075 6.58447C13.9259 6.43162 13.7694 6.31633 13.6328 6.18118C13.0232 5.57928 12.4206 4.97003 11.8127 4.3664C11.3518 3.9087 11.3397 3.44065 11.8015 2.97519C12.7491 2.01922 13.7028 1.06886 14.6583 0.120664C15.031 -0.249375 15.5329 -0.250671 15.909 0.119368C16.5506 0.750636 17.1848 1.38924 17.8191 2.02742C17.8995 2.10817 17.9613 2.20748 18.0439 2.31413C18.6474 1.70833 19.2055 1.14745 19.7641 0.58699C19.9215 0.428957 20.0788 0.270061 20.2388 0.114619C20.6119 -0.247648 21.1121 -0.249807 21.4908 0.123686C22.2033 0.82663 22.9089 1.53605 23.6149 2.24547C23.6698 2.30074 23.7039 2.37587 23.7657 2.46827C24.2197 2.00972 24.6226 1.60082 25.0277 1.19365C25.3831 0.83613 25.7393 0.479476 26.0969 0.12455C26.4635 -0.239013 26.9615 -0.26017 27.3316 0.10037C28.0536 0.803746 28.7609 1.5218 29.4746 2.23338C29.5343 2.29297 29.5966 2.3504 29.6796 2.42941C30.1668 1.93718 30.6415 1.4566 31.1175 0.977323C31.4067 0.686301 31.6938 0.392687 31.9895 0.108574C32.357 -0.244194 32.8382 -0.254557 33.2061 0.103824C33.9229 0.802019 34.6258 1.51446 35.3331 2.22259C35.3937 2.28347 35.4416 2.35687 35.5316 2.47C35.8645 2.12371 36.158 1.8111 36.4593 1.50583C36.9146 1.04468 37.372 0.585695 37.8337 0.131458C38.2284 -0.257147 38.7092 -0.261033 39.1151 0.137935C39.8804 0.889671 40.6339 1.65306 41.3926 2.41171C41.5859 2.60515 41.7804 2.79772 41.9728 2.99246C42.3848 3.40913 42.3952 3.87805 42.0035 4.31329C41.3537 5.03609 40.7039 5.7589 40.0542 6.48171C40.0304 6.50804 40.0096 6.53697 39.9919 6.55943C40.5172 7.08016 41.0377 7.59614 41.582 8.13544C41.9767 7.73561 42.3844 7.32153 42.7943 6.90917C43.1038 6.59742 43.4134 6.28611 43.7268 5.97824C44.0739 5.6367 44.5802 5.61382 44.9295 5.95752C45.9304 6.94199 46.9239 7.93423 47.9087 8.93467C48.2598 9.29132 48.2425 9.76715 47.894 10.1588C47.2524 10.8794 46.6052 11.5949 45.9606 12.3125C45.9273 12.3496 45.8958 12.3885 45.8378 12.4563C46.2291 12.8397 46.6199 13.2193 47.0069 13.6023C47.3908 13.9822 47.7738 14.3626 48.1521 14.7482C48.5602 15.1644 48.5589 15.6506 48.1499 16.0626C47.4703 16.7474 46.7877 17.4292 46.1037 18.1096C46.0328 18.18 45.9468 18.2349 45.856 18.3061C45.949 18.4054 46.0052 18.4685 46.0648 18.528C46.7622 19.2258 47.4617 19.9214 48.1569 20.6213C48.5555 21.022 48.5611 21.5164 48.1629 21.9201C47.4599 22.6326 46.7496 23.3377 46.0402 24.0437C45.99 24.0937 45.923 24.127 45.8244 24.1952C46.0454 24.4033 46.2261 24.5665 46.3981 24.7375C46.9805 25.3157 47.5611 25.8964 48.1409 26.4776C48.5607 26.8982 48.5654 27.3826 48.1461 27.8062C47.4574 28.5023 46.7635 29.1931 46.0687 29.8831C46.0086 29.9431 45.9269 29.9811 45.8206 30.0528C46.2853 30.5079 46.6973 30.9082 47.1059 31.3119C47.4643 31.6664 47.8214 32.0217 48.1746 32.3814C48.5451 32.7588 48.5602 33.2523 48.1863 33.6314C47.2109 34.6211 46.2278 35.6034 45.2386 36.5792C44.8811 36.932 44.3779 36.9199 44.0186 36.5654C43.3009 35.8577 42.5906 35.1422 41.8777 34.4294C41.8271 34.3788 41.7822 34.3218 41.7182 34.2493C41.6507 34.311 41.5984 34.3555 41.55 34.4043C40.847 35.1068 40.1441 35.8089 39.4424 36.5123C39.0161 36.9397 38.5315 36.9467 38.097 36.517C37.401 35.8283 36.711 35.1336 36.0205 34.4393C35.9652 34.3836 35.9254 34.3123 35.8299 34.1824C35.5878 34.4501 35.3937 34.6794 35.184 34.8931C34.6647 35.4225 34.1369 35.9432 33.615 36.4704C33.1313 36.9587 32.6665 36.9613 32.1758 36.4704C31.4936 35.7882 30.8131 35.1042 30.1313 34.4216C30.0812 34.3711 30.0259 34.3253 29.9355 34.2437C29.6324 34.5576 29.3372 34.8698 29.0354 35.1755C28.5801 35.6362 28.1227 36.0956 27.661 36.5498C27.2685 36.9359 26.7799 36.9354 26.3787 36.5391C25.6818 35.8512 24.9927 35.1556 24.3027 34.4609C24.2374 34.3952 24.1877 34.3149 24.1112 34.2165C23.6905 34.6431 23.3135 35.0274 22.9339 35.4086C22.5431 35.8016 22.1527 36.1954 21.7558 36.5822C21.4156 36.9138 20.9089 36.9294 20.5691 36.5943C19.5583 35.5991 18.5553 34.5965 17.5588 33.5869C17.2229 33.2467 17.2622 32.7419 17.6306 32.368C18.0447 31.9475 18.4641 31.5317 18.8839 31.1167C19.2263 30.7782 19.5726 30.444 19.9094 30.1154C19.3279 29.5381 18.7689 28.9828 18.193 28.4111L18.1926 28.4129ZM27.0186 28.8373C27.7812 28.0782 28.527 27.3382 29.2701 26.5955C29.7198 26.1464 30.1988 26.1434 30.6475 26.5929C31.0038 26.9496 31.3609 27.3049 31.7141 27.6642C32.1015 28.058 32.4854 28.4552 32.8991 28.8801C33.0003 28.7622 33.0656 28.6754 33.1417 28.599C33.8226 27.9155 34.5026 27.2315 35.1887 26.5532C35.5904 26.1564 36.0724 26.1577 36.4697 26.5493C36.8234 26.8977 37.1731 27.2509 37.522 27.6041C37.9306 28.0182 38.3361 28.4349 38.72 28.827C39.3093 28.2428 39.87 27.6875 40.4363 27.1262C40.4052 27.0925 40.368 27.0493 40.3283 27.0096C39.621 26.3015 38.9132 25.5942 38.2064 24.8861C37.7749 24.4538 37.771 23.9728 38.1986 23.5432C38.8895 22.8493 39.5816 22.1572 40.2772 21.4676C40.3369 21.4085 40.4255 21.3778 40.5072 21.3295C40.3935 21.2107 40.3455 21.1589 40.2954 21.1084C39.5933 20.4054 38.8899 19.7038 38.1891 18.9996C37.7801 18.5885 37.7762 18.1036 38.1835 17.6869C38.5708 17.2906 38.9643 16.8998 39.359 16.5108C39.7264 16.1481 40.0987 15.7905 40.5146 15.3864C40.4121 15.3143 40.3391 15.2767 40.2842 15.2219C39.5799 14.5211 38.8774 13.8186 38.1766 13.1148C37.7875 12.724 37.7836 12.2231 38.1688 11.8324C38.634 11.3609 39.1026 10.8928 39.5734 10.4269C39.8687 10.135 40.1709 9.85092 40.4748 9.5586C40.4026 9.48001 40.3654 9.43727 40.3257 9.39711C39.6184 8.68898 38.9093 7.98302 38.2038 7.27316C37.7965 6.8634 37.7801 6.39967 38.1571 5.97004C38.442 5.64534 38.7338 5.32711 39.0226 5.00587C39.4113 4.57279 39.7991 4.13971 40.1817 3.71311C39.6002 3.13322 39.0317 2.56542 38.4212 1.95661C38.3741 2.02138 38.3274 2.10557 38.2622 2.17164C37.583 2.85645 36.8999 3.5378 36.2194 4.22175C35.7827 4.66044 35.2977 4.6626 34.8584 4.22434C34.6751 4.04126 34.4927 3.85732 34.3098 3.67338C33.7465 3.10774 33.1827 2.54211 32.5744 1.93157C32.4975 2.0326 32.4408 2.1263 32.3661 2.20186C31.686 2.88624 31.0046 3.56932 30.3203 4.24938C29.9169 4.65008 29.421 4.65267 29.0216 4.25759C28.5966 3.83746 28.1759 3.41345 27.7553 2.98857C27.4176 2.64746 27.083 2.3029 26.7453 1.95834C25.9581 2.74332 25.1985 3.50024 24.4384 4.25759C24.0467 4.64749 23.5522 4.65008 23.1574 4.26104C22.8959 4.00326 22.6382 3.74204 22.3788 3.4821C21.8769 2.97907 21.3754 2.47561 20.8674 1.96611C20.8211 2.01015 20.7904 2.03865 20.7606 2.06844C20.0728 2.75498 19.3884 3.44497 18.6962 4.12719C18.324 4.49377 17.8433 4.49679 17.4637 4.13798C17.1602 3.85128 16.8705 3.55032 16.5752 3.25541C16.149 2.82924 15.7231 2.40221 15.3055 1.98424C14.7327 2.55463 14.1737 3.11163 13.6056 3.67684C13.6557 3.72951 13.7076 3.78737 13.7625 3.84221C14.465 4.54515 15.1693 5.24594 15.8697 5.95018C16.2696 6.35217 16.2696 6.84699 15.8723 7.24726C15.4412 7.68163 15.0089 8.11428 14.5727 8.54347C14.2415 8.86947 13.9034 9.18813 13.5615 9.51672C14.3578 10.3103 15.1135 11.0616 15.8667 11.8151C16.2743 12.2227 16.2717 12.7193 15.8632 13.1295C15.4417 13.5526 15.0197 13.9762 14.5939 14.395C14.2567 14.7266 13.9134 15.0518 13.5801 15.3721C13.6177 15.4283 13.6237 15.4417 13.6332 15.4512C14.376 16.1947 15.1196 16.9378 15.8619 17.6822C16.2709 18.0924 16.2726 18.5842 15.8654 18.9952C15.5312 19.3329 15.1944 19.6684 14.8572 20.003C14.4343 20.4223 14.0098 20.8398 13.5463 21.2971C13.6134 21.3351 13.6588 21.3493 13.6886 21.3791C14.4179 22.1058 15.1464 22.8334 15.8736 23.5618C16.2648 23.9538 16.2704 24.4461 15.887 24.8455C15.7076 25.0324 15.5217 25.2129 15.3375 25.3956C14.756 25.9724 14.1741 26.5493 13.6112 27.1072C14.1897 27.6879 14.7499 28.2501 15.3111 28.8127C16.0469 28.0787 16.7923 27.3377 17.5346 26.5938C17.9769 26.1508 18.4524 26.1434 18.8938 26.5834C19.5466 27.2341 20.1982 27.8857 20.8488 28.5385C20.9482 28.6387 21.0382 28.7484 21.1346 28.8563C21.234 28.7626 21.2984 28.7052 21.359 28.6443C22.0511 27.9517 22.745 27.2613 23.4328 26.5644C23.7087 26.285 24.0264 26.1754 24.3922 26.3291C24.5517 26.396 24.6961 26.5204 24.8219 26.6443C25.5547 27.3671 26.2797 28.0972 27.0194 28.8369L27.0186 28.8373Z" fill="#423A2F"/>
</g>
<defs>
<clipPath id="clip0_124_13787">
<rect width="48" height="37" fill="white" transform="translate(0.0325928 0.662109)"/>
</clipPath>
</defs>
</svg>
